<?xml version="1.0" encoding="UTF-8"?>
<svg xmlns="http://www.w3.org/2000/svg" xmlns:xlink="http://www.w3.org/1999/xlink" width="841.889764pt" height="595.275591pt" viewBox="0 0 841.889764 595.275591" version="1.1">
<g id="surface1">
<path style="fill:none;stroke-width:1;stroke-linecap:butt;stroke-linejoin:miter;stroke:rgb(0%,0%,0%);stroke-opacity:1;stroke-miterlimit:10;" d="M 642.046875 297.636719 L 420.945312 297.636719 L 420.945312 311.8125 L 435.117188 311.8125 L 435.117188 320.316406 L 449.292969 320.316406 L 449.292969 348.660156 L 464.515625 348.660156 L 464.515625 320.316406 L 470.605469 320.316406 L 470.605469 348.660156 L 485.828125 348.660156 L 485.828125 320.316406 L 491.914062 320.316406 L 491.914062 348.660156 L 507.140625 348.660156 L 507.140625 320.316406 L 513.226562 320.316406 L 513.226562 348.660156 L 528.453125 348.660156 L 528.453125 320.316406 L 534.539062 320.316406 L 534.539062 348.660156 L 549.765625 348.660156 L 549.765625 320.316406 L 555.851562 320.316406 L 555.851562 348.660156 L 571.074219 348.660156 L 571.074219 320.316406 L 577.164062 320.316406 L 577.164062 348.660156 L 592.386719 348.660156 L 592.386719 320.316406 L 598.476562 320.316406 L 598.476562 348.660156 L 613.699219 348.660156 L 613.699219 320.316406 L 627.875 320.316406 L 627.875 311.8125 L 642.046875 311.8125 L 642.046875 297.636719 "/>
</g>
</svg>
