<?xml version="1.0" encoding="UTF-8"?>
<svg xmlns="http://www.w3.org/2000/svg" xmlns:xlink="http://www.w3.org/1999/xlink" width="841.889764pt" height="595.275591pt" viewBox="0 0 841.889764 595.275591" version="1.1">
<g id="surface1">
<path style=" stroke:none;fill-rule:nonzero;fill:rgb(0%,0%,0%);fill-opacity:1;" d="M 420.945312 297.636719 L 795.117188 297.636719 L 795.117188 320.3125 L 420.945312 320.3125 Z M 420.945312 297.636719 "/>
<path style=" stroke:none;fill-rule:nonzero;fill:rgb(0%,0%,0%);fill-opacity:1;" d="M 398.269531 297.636719 L 420.945312 297.636719 L 420.945312 320.3125 L 398.269531 320.3125 Z M 398.269531 297.636719 "/>
<path style=" stroke:none;fill-rule:nonzero;fill:rgb(0%,0%,0%);fill-opacity:1;" d="M 795.117188 297.636719 L 817.792969 297.636719 L 817.792969 320.3125 L 795.117188 320.3125 Z M 795.117188 297.636719 "/>
<path style=" stroke:none;fill-rule:nonzero;fill:rgb(0%,0%,0%);fill-opacity:1;" d="M 384.09375 297.636719 L 398.265625 297.636719 L 398.265625 311.808594 L 384.09375 311.808594 Z M 384.09375 297.636719 "/>
<path style=" stroke:none;fill-rule:nonzero;fill:rgb(0%,0%,0%);fill-opacity:1;" d="M 817.796875 297.636719 L 831.96875 297.636719 L 831.96875 311.808594 L 817.796875 311.808594 Z M 817.796875 297.636719 "/>
<path style=" stroke:none;fill-rule:nonzero;fill:rgb(0%,0%,0%);fill-opacity:1;" d="M 420.945312 320.316406 L 439.109375 320.316406 L 439.109375 348.664062 L 420.945312 348.664062 Z M 420.945312 320.316406 "/>
<path style=" stroke:none;fill-rule:nonzero;fill:rgb(0%,0%,0%);fill-opacity:1;" d="M 446.375 320.316406 L 464.539062 320.316406 L 464.539062 348.664062 L 446.375 348.664062 Z M 446.375 320.316406 "/>
<path style=" stroke:none;fill-rule:nonzero;fill:rgb(0%,0%,0%);fill-opacity:1;" d="M 471.804688 320.316406 L 489.96875 320.316406 L 489.96875 348.664062 L 471.804688 348.664062 Z M 471.804688 320.316406 "/>
<path style=" stroke:none;fill-rule:nonzero;fill:rgb(0%,0%,0%);fill-opacity:1;" d="M 497.234375 320.316406 L 515.398438 320.316406 L 515.398438 348.664062 L 497.234375 348.664062 Z M 497.234375 320.316406 "/>
<path style=" stroke:none;fill-rule:nonzero;fill:rgb(0%,0%,0%);fill-opacity:1;" d="M 522.660156 320.316406 L 540.824219 320.316406 L 540.824219 348.664062 L 522.660156 348.664062 Z M 522.660156 320.316406 "/>
<path style=" stroke:none;fill-rule:nonzero;fill:rgb(0%,0%,0%);fill-opacity:1;" d="M 548.089844 320.316406 L 566.253906 320.316406 L 566.253906 348.664062 L 548.089844 348.664062 Z M 548.089844 320.316406 "/>
<path style=" stroke:none;fill-rule:nonzero;fill:rgb(0%,0%,0%);fill-opacity:1;" d="M 573.519531 320.316406 L 591.683594 320.316406 L 591.683594 348.664062 L 573.519531 348.664062 Z M 573.519531 320.316406 "/>
<path style=" stroke:none;fill-rule:nonzero;fill:rgb(0%,0%,0%);fill-opacity:1;" d="M 598.949219 320.316406 L 617.113281 320.316406 L 617.113281 348.664062 L 598.949219 348.664062 Z M 598.949219 320.316406 "/>
<path style=" stroke:none;fill-rule:nonzero;fill:rgb(0%,0%,0%);fill-opacity:1;" d="M 624.378906 320.316406 L 642.542969 320.316406 L 642.542969 348.664062 L 624.378906 348.664062 Z M 624.378906 320.316406 "/>
<path style=" stroke:none;fill-rule:nonzero;fill:rgb(0%,0%,0%);fill-opacity:1;" d="M 649.808594 320.316406 L 667.972656 320.316406 L 667.972656 348.664062 L 649.808594 348.664062 Z M 649.808594 320.316406 "/>
<path style=" stroke:none;fill-rule:nonzero;fill:rgb(0%,0%,0%);fill-opacity:1;" d="M 675.238281 320.316406 L 693.402344 320.316406 L 693.402344 348.664062 L 675.238281 348.664062 Z M 675.238281 320.316406 "/>
<path style=" stroke:none;fill-rule:nonzero;fill:rgb(0%,0%,0%);fill-opacity:1;" d="M 700.667969 320.316406 L 718.832031 320.316406 L 718.832031 348.664062 L 700.667969 348.664062 Z M 700.667969 320.316406 "/>
<path style=" stroke:none;fill-rule:nonzero;fill:rgb(0%,0%,0%);fill-opacity:1;" d="M 726.097656 320.316406 L 744.261719 320.316406 L 744.261719 348.664062 L 726.097656 348.664062 Z M 726.097656 320.316406 "/>
<path style=" stroke:none;fill-rule:nonzero;fill:rgb(0%,0%,0%);fill-opacity:1;" d="M 751.523438 320.316406 L 769.6875 320.316406 L 769.6875 348.664062 L 751.523438 348.664062 Z M 751.523438 320.316406 "/>
<path style=" stroke:none;fill-rule:nonzero;fill:rgb(0%,0%,0%);fill-opacity:1;" d="M 776.953125 320.316406 L 795.117188 320.316406 L 795.117188 348.664062 L 776.953125 348.664062 Z M 776.953125 320.316406 "/>
</g>
</svg>
