<?xml version="1.0" encoding="UTF-8" standalone="no"?>
<svg
   width="841.889764pt"
   height="595.275591pt"
   viewBox="0 0 841.889764 595.275591"
   version="1.1"
   id="svg5"
   sodipodi:docname="comb15.svg"
   inkscape:version="1.1.2 (0a00cf5339, 2022-02-04)"
   xmlns:inkscape="http://www.inkscape.org/namespaces/inkscape"
   xmlns:sodipodi="http://sodipodi.sourceforge.net/DTD/sodipodi-0.dtd"
   xmlns="http://www.w3.org/2000/svg"
   xmlns:svg="http://www.w3.org/2000/svg">
  <defs
     id="defs9" />
  <sodipodi:namedview
     id="namedview7"
     pagecolor="#ffffff"
     bordercolor="#666666"
     borderopacity="1.0"
     inkscape:pageshadow="2"
     inkscape:pageopacity="0.0"
     inkscape:pagecheckerboard="0"
     inkscape:document-units="pt"
     showgrid="false"
     inkscape:zoom="1.0331349"
     inkscape:cx="560.91414"
     inkscape:cy="396.36642"
     inkscape:window-width="1920"
     inkscape:window-height="1009"
     inkscape:window-x="0"
     inkscape:window-y="34"
     inkscape:window-maximized="1"
     inkscape:current-layer="svg5" />
  <g
     id="surface1"
     transform="translate(-207.92295,-27.841733)">
    <path
       style="fill:none;stroke:#000000;stroke-width:1;stroke-linecap:butt;stroke-linejoin:miter;stroke-miterlimit:10;stroke-opacity:1"
       d="m 868.82031,297.63672 h -447.875 v 14.17578 h 14.17188 v 8.50391 h 22.67968 v 28.34375 h 18.16407 v -28.34375 h 7.26172 v 28.34375 h 18.16406 v -28.34375 h 7.26562 v 28.34375 h 18.16407 v -28.34375 h 7.26562 v 28.34375 h 18.16406 v -28.34375 h 7.26563 v 28.34375 h 18.16406 v -28.34375 h 7.26563 v 28.34375 h 18.16406 v -28.34375 h 7.26562 v 28.34375 h 18.16407 v -28.34375 h 7.26562 v 28.34375 h 18.16406 v -28.34375 h 7.26563 v 28.34375 h 18.16406 v -28.34375 h 7.26563 v 28.34375 h 18.16015 v -28.34375 h 7.26563 v 28.34375 H 730.25 v -28.34375 h 7.26562 v 28.34375 h 18.16407 v -28.34375 h 7.26562 v 28.34375 h 18.16406 v -28.34375 h 7.26563 v 28.34375 h 18.16406 v -28.34375 h 7.26563 v 28.34375 h 18.16406 v -28.34375 h 22.67578 v -8.50391 h 14.17578 v -14.17578"
       id="path2" />
  </g>
</svg>
